<svg xmlns="http://www.w3.org/2000/svg" xmlns:xlink="http://www.w3.org/1999/xlink" version="1.1" viewBox="96.08 -0.03 107.85 300.05">
<g id="surface1">
<path style=" stroke:none;fill-rule:nonzero;fill:rgb(0%,0%,0%);fill-opacity:1;" d="M 114.3125 122.222656 C 103.234375 136.117188 97.140625 150.226562 96.230469 164.167969 C 95.207031 179.882812 99.691406 194.816406 109.570312 208.53125 C 120.03125 223.148438 133.253906 231.078125 148.855469 232.097656 C 154.097656 232.441406 159.027344 232.296875 163.582031 231.683594 C 164.515625 236.980469 165.457031 242.242188 166.328125 247.453125 C 167.414062 254.496094 167.800781 260.609375 167.46875 265.617188 C 167.007812 272.535156 164.851562 278.199219 161.035156 282.449219 C 156.90625 287.039062 151.761719 289.046875 145.234375 288.625 C 142.394531 288.4375 139.890625 287.707031 137.6875 286.40625 C 140.28125 285.8125 142.632812 284.699219 144.691406 283.097656 C 148.679688 280.003906 150.914062 275.507812 151.28125 269.75 C 151.628906 264.214844 150.222656 259.371094 147.082031 255.371094 C 143.742188 250.988281 139.199219 248.574219 133.585938 248.203125 C 127.851562 247.824219 122.652344 250.144531 118.386719 254.992188 C 114.597656 259.28125 112.476562 264.328125 112.117188 269.996094 C 111.566406 278.460938 114.777344 285.6875 121.703125 291.472656 C 127.773438 296.539062 135.042969 299.375 143.3125 299.917969 C 148.011719 300.226562 152.554688 299.683594 156.785156 298.304688 C 160.261719 297.175781 163.597656 295.453125 166.730469 293.203125 C 174.300781 287.75 178.414062 280.621094 178.972656 271.984375 C 179.410156 265.40625 179.078125 257.613281 177.96875 248.726562 L 174.878906 228.710938 C 182.785156 226.070312 189.417969 221.300781 194.585938 214.550781 C 200.070312 207.417969 203.164062 198.996094 203.789062 189.515625 C 204.550781 177.871094 201.773438 167.3125 195.507812 158.132812 C 188.644531 148.066406 179.230469 142.574219 167.542969 141.8125 C 166.195312 141.722656 164.78125 141.734375 163.304688 141.84375 L 160.023438 117.261719 C 169.136719 109.46875 176.519531 99.671875 181.980469 88.125 C 187.378906 76.65625 190.550781 64.238281 191.398438 51.230469 C 191.894531 43.585938 190.847656 34.097656 188.277344 23.019531 C 184.757812 7.984375 179.742188 0.464844 172.910156 0.0117188 C 170.496094 -0.136719 167.839844 1.089844 164.59375 3.941406 C 156.722656 11.0625 150.992188 19.671875 147.5625 29.523438 C 144.910156 37.046875 143.15625 47.105469 142.335938 59.429688 C 141.9375 65.570312 142.910156 76 145.332031 91.308594 C 130.828125 104.179688 120.40625 114.582031 114.3125 122.222656 Z M 182.351562 189.679688 C 182.351562 197.726562 178.375 211.246094 172.832031 214.546875 L 167.113281 171.25 C 175.773438 172.910156 182.351562 180.535156 182.351562 189.679688 Z M 153.992188 72.535156 C 154.503906 64.6875 156.476562 56.167969 159.859375 47.230469 C 164.148438 36.042969 168.214844 32.664062 170.863281 31.800781 C 171.589844 31.566406 172.300781 31.472656 173.046875 31.523438 C 176.507812 31.753906 179.957031 33.21875 179.363281 42.363281 C 178.863281 50.113281 175.785156 58.324219 170.234375 66.78125 C 165.769531 73.601562 160.582031 79.292969 154.792969 83.738281 C 153.984375 80.554688 153.707031 76.800781 153.992188 72.535156 Z M 149.644531 125.515625 L 151.902344 144.140625 C 145.621094 146.734375 140.144531 150.839844 135.589844 156.367188 C 130.34375 162.796875 127.429688 169.886719 126.941406 177.429688 C 126.429688 185.253906 128.183594 192.421875 132.140625 198.707031 C 134.199219 202.054688 137.027344 205.03125 140.28125 207.457031 C 145.609375 211.421875 151.753906 211.121094 152.726562 208.964844 C 153.71875 206.8125 150.066406 203.433594 147.195312 198.917969 C 145.5625 196.363281 144.769531 193.292969 144.769531 189.683594 C 144.769531 182.019531 149.386719 175.441406 155.972656 172.519531 L 162.140625 220.546875 C 158.855469 221.226562 155.179688 221.441406 151.1875 221.183594 C 140.933594 220.507812 131.777344 216.289062 123.953125 208.621094 C 115.78125 200.652344 112.117188 191.871094 112.773438 181.777344 C 114.035156 162.664062 126.433594 143.753906 149.644531 125.515625 Z M 149.644531 125.515625 "/>
</g>
</svg>