<svg xmlns="http://www.w3.org/2000/svg" xmlns:xlink="http://www.w3.org/1999/xlink" version="1.1" width="107.85" height="300.05" style=""><rect id="backgroundrect" width="100%" height="100%" x="0" y="0" fill="none" stroke="none"/>

<g class="currentLayer" style=""><title>Layer 1</title><g id="surface1" class="" fill="#ffffff" fill-opacity="1">
<path style="stroke: none; fill-rule: nonzero;" d="M20.692677898961392,124.68490319552289 C10.150920187752035,137.9067065110339 4.352210022206691,151.33294986582874 3.486120857171681,164.5993586441516 C2.5122344433205406,179.5533393381494 6.7794903856577555,193.7638966035323 16.180091435367196,206.81471183580612 C26.13454436201164,220.72418246510458 38.71700175896903,228.2699394483239 53.56318710731712,229.24010802658663 C58.5515642226549,229.5672147538738 63.242572537496656,229.42968148143297 67.5767361982601,228.84609358087323 C68.46512857049265,233.8865108786165 69.36095471073558,238.89347431714666 70.1898731325523,243.8521144572765 C71.22323254523607,250.55408548265837 71.59122785132995,256.3713810198129 71.27527272764155,261.13673177267447 C70.83665186753305,267.71975394564134 68.78480057818624,273.1095811778694 65.15317271881422,277.1538098061472 C61.22417510736295,281.52142732612367 56.32872580165413,283.4320284590245 50.117414867203024,283.0305792937175 C47.41506700728705,282.85215744246995 45.032392106647876,282.15705540908885 42.935935354489175,280.91925405395483 C45.40410429674694,280.35425152500426 47.64181120535168,279.2948720211178 49.600734685069526,277.77085156591994 C53.39591685966834,274.8268910203354 55.52210963545176,270.5484834743994 55.87151956993648,265.0694462681309 C56.20234318122884,259.802284772323 54.86417929687222,255.19305361509467 51.875613288475776,251.38672078848023 C48.697474776816215,247.2161095397772 44.37446176806834,244.9189286807566 39.03295783424064,244.5658018622667 C33.57622193200323,244.2052412757664 28.628733395472135,246.41321120916322 24.569636279590394,251.02616020198 C20.964027559837906,255.10755957347607 18.945630129704206,259.91008106955593 18.603655866396274,265.30362518578914 C18.079540964669196,273.3586285831315 21.135015643075075,280.23530362417256 27.725472535635618,285.7403609216438 C33.50188044556662,290.5614677893328 40.41944406541434,293.26009876524364 48.288590891915646,293.7767789473772 C52.76028877670315,294.07043086386795 57.08330178545102,293.55375163331775 61.10894409053644,292.2416078401638 C64.41718305820969,291.1673588970901 67.59160468586406,289.5281083766491 70.57273692625013,287.3870461616785 C77.77651869457831,282.1979439878956 81.69064781842562,275.4141967564836 82.22219648816308,267.1956399954975 C82.63851414107403,260.93600671422934 82.32255901738563,253.52034828385723 81.2668963975043,245.06389572120784 L78.32665273592492,226.0173640521152 C85.85010746352991,223.50458869546233 92.16178092720357,218.9659830922486 97.07953344010994,212.54279644733683 C102.29837163751753,205.7553323319196 105.24233218310209,197.74121751338384 105.83707168726059,188.71976242178386 C106.56191069584956,177.63902227282665 103.91903773793265,167.59164153655325 97.9567732571605,158.85640459343372 C91.42579031501582,149.27738169247672 82.46752700942007,144.05110877547554 71.34589828165618,143.32626976688658 C70.063490512127,143.24077572526798 68.71789285976001,143.25192732886677 67.31282125697717,143.3560067420945 L64.19043886014506,119.96415885705642 C72.86248401726034,112.54850042668437 79.88784393434098,103.22595869899993 85.08438082771745,92.2381463596717 C90.22144281909486,81.32467645836329 93.23974580269923,69.50794569721833 94.0463619689016,57.12993024271123 C94.51843573664,49.855522920368415 93.52224706717452,40.82663310917483 91.07638133211431,30.284875397965475 C87.72725378563436,15.977673438948436 82.95447021634564,8.822214017437322 76.45322329782566,8.39102768660577 C74.15604243880507,8.249776768893165 71.62839954613146,9.416953521595818 68.53947100851246,12.130452033527359 C61.04947014012059,18.906765496929033 55.59645302505478,27.099302166712327 52.332819520193425,36.473884076802236 C49.808893511525,43.63306038231854 48.13990601587602,53.20464951526515 47.3593108924596,64.93216935078631 C46.98016398276695,70.77548402756034 47.90572709821781,80.70019997899686 50.210342676831985,95.26760094687484 C36.40866929634967,107.51551784853469 26.491388064506737,117.41421275718527 20.692677898961392,124.68490319552289 zM85.43750669462415,188.87588201741707 C85.43750669462415,196.5331521818745 81.65347707520732,209.39811179489038 76.37888085980585,212.53907956333165 L70.9370143967556,171.33850041275178 C79.17787436493919,172.91827698277697 85.43750669462415,180.17409893351063 85.43750669462415,188.87588201741707 zM58.45120264501556,77.40311261492239 C58.938144900357926,69.93541495372807 60.815291222462385,61.82837232556336 64.03431926451185,53.32359741609685 C68.11571958759114,42.67776029165976 71.98524324862656,39.46244913361548 74.50545142170658,38.64096543139236 C75.19683657108244,38.41793811733292 75.87335228127112,38.32872719170915 76.58332280225613,38.377050490109426 C79.8766923307422,38.59635996858047 83.15891120721271,39.99028091934775 82.59390867826214,48.69206305167095 C82.11811707493534,56.06683290323631 79.18902501695474,63.88022361491017 73.9069950335429,71.92779229265903 C69.65832446281483,78.41788665599702 64.72198657829931,83.83373397942773 59.21321239682284,88.06381822696345 C58.44376792542198,85.0343645913435 58.17985203255584,81.46220973080413 58.45120264501556,77.40311261492239 zM54.31404525552561,127.81843719595378 L56.46254219008979,145.54167441987698 C50.4854101732969,148.00984336213475 45.27400479231646,151.91653871797166 40.939841131553024,157.1762664457692 C35.94774618062684,163.29464861900811 33.17477371827945,170.04122510720185 32.710132766968215,177.21898773591053 C32.22319051162585,184.6643821899073 33.892178007274836,191.48530111612087 37.657622255082515,197.46615001691893 C39.61654573480037,200.6517241997553 42.30774199111757,203.48417061251854 45.40410429674694,205.7925030751379 C50.47425856969812,209.56538204253917 56.32129108206054,209.27916389405868 57.246854197511404,207.22731260471187 C58.19100363615462,205.17917819937026 54.7154944208326,201.96386799290917 51.983409585708706,197.66687507536403 C50.429653106886235,195.23587687632457 49.67507712308934,192.31421953793756 49.67507712308934,188.87959890142224 C49.67507712308934,181.58660525588706 54.06871568585184,175.32697197461889 60.335782735130394,172.5465647926779 L66.20511845469036,218.24857880325322 C63.07901917385307,218.89535753823398 59.58120770291671,219.09979948068425 55.78230864431271,218.85446991101048 C46.02486389210817,218.2114071084517 37.31193015618619,214.19691545538186 29.866534750606206,206.9002058774247 C22.09031573373386,199.31727719940386 18.603655866396274,190.96118716597698 19.228132345762695,181.35614417381726 C20.42876200609526,163.16826599858283 32.226907395631045,145.1736791137831 54.31404525552561,127.81843719595378 zM54.31404525552561,127.81843719595378 " id="svg_1" fill="#ffffff" fill-opacity="1"/>
</g></g></svg>